<?xml version="1.0" standalone="no"?><!DOCTYPE svg PUBLIC "-//W3C//DTD SVG 1.1//EN" "http://www.w3.org/Graphics/SVG/1.1/DTD/svg11.dtd"><svg width="200" height="200" viewBox="0 0 200 200" version="1.1" xmlns="http://www.w3.org/2000/svg" xmlns:xlink="http://www.w3.org/1999/xlink"><defs><style type="text/css"><![CDATA[

]]></style></defs><g class="transform-group"><g transform="scale(0.1953125, 0.1953125)"><path d="M539.3 512l376.6-376.6c7.5-7.5 7.5-19.7 0-27.3-7.5-7.5-19.8-7.5-27.3 0L512 484.7 135.4 108.1c-7.5-7.5-19.8-7.5-27.3 0s-7.5 19.7 0 27.3L484.7 512 108.1 888.6c-7.5 7.5-7.5 19.7 0 27.3 3.8 3.8 8.7 5.7 13.6 5.7s9.9-1.9 13.6-5.7L512 539.3l376.6 376.6c3.8 3.8 8.7 5.7 13.6 5.7s9.9-1.9 13.6-5.7c7.5-7.5 7.5-19.7 0-27.3L539.3 512z" fill="#d81e06"></path></g></g></svg>